<?xml version="1.0" standalone="no"?>
<!DOCTYPE svg PUBLIC "-//W3C//DTD SVG 20010904//EN"
 "http://www.w3.org/TR/2001/REC-SVG-20010904/DTD/svg10.dtd">
<svg version="1.0" xmlns="http://www.w3.org/2000/svg"
 width="16.000000pt" height="16.000000pt" viewBox="0 0 16.000000 16.000000"
 preserveAspectRatio="xMidYMid meet">

<g transform="translate(0.000000,16.000000) scale(0.001566,-0.001566)"
fill="#000000" stroke="none">
<path d="M2105 10203 c-100 -9 -261 -38 -383 -69 -806 -206 -1455 -861 -1653
-1668 -69 -284 -64 -22 -64 -3361 0 -2880 1 -3015 19 -3130 80 -518 305 -958
677 -1321 349 -339 789 -556 1285 -631 113 -17 281 -18 3119 -18 2874 0 3005
1 3120 19 66 10 179 33 250 51 812 204 1461 847 1665 1652 69 275 63 -13 67
3308 3 2126 1 3032 -7 3110 -50 506 -273 988 -630 1359 -284 296 -665 522
-1053 626 -62 16 -164 40 -227 52 l-115 22 -3015 1 c-1658 1 -3033 0 -3055 -2z
m3055 -1120 c0 -5 -20 -71 -44 -148 l-43 -140 155 -3 c85 -1 156 -1 158 1 2 1
-2 21 -8 44 -14 58 -48 87 -105 89 l-46 2 -23 73 c-13 41 -24 78 -24 82 0 5
26 6 58 2 246 -27 301 -112 318 -488 4 -78 12 -156 19 -173 8 -18 37 -50 68
-72 31 -23 61 -56 71 -77 34 -71 154 -496 186 -658 11 -54 14 -59 74 -102 78
-55 116 -119 116 -193 0 -50 12 -94 92 -342 53 -161 105 -297 212 -546 79
-186 86 -207 86 -268 0 -89 23 -193 72 -335 81 -230 198 -446 277 -509 30 -24
55 -62 96 -144 54 -107 56 -116 53 -177 -3 -59 0 -68 24 -95 17 -19 43 -78 73
-166 43 -125 49 -138 80 -154 58 -31 82 -67 158 -231 104 -224 300 -611 403
-795 66 -119 88 -167 92 -204 4 -39 12 -56 41 -85 54 -54 75 -104 79 -193 l4
-76 42 -16 c66 -25 110 -69 154 -154 23 -43 89 -161 147 -262 101 -176 105
-186 105 -242 0 -118 -73 -198 -208 -227 -34 -7 -188 -11 -425 -11 l-372 0
-404 -80 c-223 -44 -406 -78 -408 -76 -3 2 -17 37 -33 77 l-28 74 -77 5 -77 5
-14 35 c-7 19 -59 152 -115 295 -79 202 -102 273 -105 320 -2 33 -12 90 -22
126 -15 58 -24 73 -73 117 l-55 50 -134 11 c-230 17 -519 23 -607 12 -45 -6
-110 -22 -144 -36 -60 -25 -74 -27 -323 -35 -144 -5 -351 -6 -462 -3 l-201 6
-19 -32 c-10 -17 -35 -43 -56 -57 -57 -40 -88 -127 -88 -251 0 -61 -23 -135
-74 -243 -22 -46 -36 -90 -36 -115 -1 -22 -16 -76 -34 -120 l-32 -80 -76 -3
-76 -3 -38 -95 c-33 -83 -41 -95 -58 -90 -12 2 -97 17 -191 31 -138 22 -175
32 -197 50 -30 25 -129 51 -231 62 -34 3 -69 12 -79 20 -14 12 -23 12 -69 -1
-69 -21 -92 -20 -139 4 -35 18 -59 20 -224 20 l-185 0 -93 46 c-51 25 -108 59
-125 76 -45 44 -67 105 -61 170 5 52 30 109 583 1301 74 160 81 171 142 224
92 81 113 121 116 224 l3 84 170 310 c94 171 213 388 265 484 78 145 107 188
176 262 130 141 271 371 354 578 33 84 43 123 49 195 6 83 11 100 58 191 58
113 64 122 110 154 18 12 41 40 52 62 11 21 35 49 53 61 23 15 46 50 80 119
46 93 48 101 37 135 -24 71 -9 126 95 359 53 121 160 371 237 555 77 184 148
349 159 367 11 18 35 41 54 53 19 12 37 30 40 40 3 11 19 30 36 44 25 22 28
28 19 51 -15 38 -12 96 6 146 9 24 15 69 15 99 -2 44 9 86 53 208 31 84 64
183 75 220 24 79 64 132 123 161 43 21 88 28 88 14z"/>
<path d="M5167 8640 c-43 -128 -46 -143 -33 -161 13 -19 12 -29 -11 -93 l-25
-72 26 -38 c14 -21 28 -53 32 -71 12 -64 -3 -91 -86 -163 -73 -62 -80 -71 -96
-129 -17 -62 -17 -62 -57 -65 -37 -3 -41 -6 -59 -53 -36 -91 -224 -537 -317
-750 l-92 -209 21 -56 c18 -49 20 -73 18 -230 l-3 -175 -34 83 c-19 45 -38 82
-41 82 -15 0 -32 -58 -35 -116 -4 -80 -10 -99 -41 -113 l-25 -11 30 -39 31
-39 -46 -26 c-60 -34 -126 -56 -167 -56 -18 0 -37 -4 -43 -8 -23 -15 -54 -92
-54 -135 0 -195 -247 -679 -468 -918 -54 -58 -98 -131 -303 -505 -213 -390
-239 -442 -239 -483 -1 -123 -62 -253 -169 -361 l-75 -75 -283 -610 c-156
-335 -286 -619 -289 -630 -4 -17 5 -25 53 -48 32 -15 85 -34 118 -43 33 -8
107 -39 165 -68 l106 -53 49 18 c69 24 126 24 158 -1 16 -13 60 -27 113 -36
99 -17 168 -39 204 -64 27 -18 221 -54 231 -42 14 15 91 229 95 262 7 61 14
83 61 184 40 86 47 112 54 193 15 177 54 278 144 373 33 34 61 76 75 110 11
30 28 61 37 67 13 10 119 13 448 12 486 -1 571 4 670 37 137 45 304 53 686 34
261 -14 416 -34 449 -58 14 -10 34 -35 45 -56 16 -30 25 -36 47 -34 15 1 36
-6 49 -17 31 -28 69 -113 69 -157 0 -21 11 -72 25 -115 14 -43 25 -98 25 -123
0 -33 32 -128 124 -365 69 -176 128 -319 133 -319 110 17 703 140 703 146 0 4
-20 51 -45 104 -34 73 -40 94 -27 90 9 -3 122 -32 250 -65 l234 -60 129 26
c71 14 129 30 129 35 0 5 -30 61 -66 126 -37 64 -77 135 -89 157 -21 37 -29
42 -93 58 -81 21 -146 59 -183 108 l-26 34 28 100 c16 55 25 101 19 103 -23 8
-76 49 -85 67 -5 11 -29 48 -52 82 l-43 62 26 30 26 31 -58 103 c-79 142 -298
572 -379 747 -77 165 -73 162 -225 196 -41 9 -77 18 -79 20 -2 2 12 28 32 59
21 30 37 61 37 68 0 7 -13 51 -28 97 l-28 83 -142 74 -142 75 78 62 c106 86
108 89 91 128 -7 18 -37 59 -67 91 -180 196 -380 667 -399 937 -5 75 -13 102
-65 225 -95 222 -181 447 -237 617 -47 146 -54 161 -95 200 -50 48 -65 98 -48
154 l10 34 -78 57 c-65 47 -77 60 -69 74 22 43 0 158 -97 502 -45 160 -46 163
-93 207 -113 105 -140 170 -152 365 -14 232 -18 265 -37 265 -13 0 -29 -35
-65 -140z m-62 -2544 c32 -13 62 -31 67 -40 53 -94 433 -1021 447 -1087 6 -30
15 -100 20 -156 10 -111 26 -153 90 -243 21 -30 104 -157 184 -282 l145 -226
-84 -7 c-85 -7 -197 -3 -307 13 l-59 8 -45 -98 c-45 -96 -46 -98 -80 -98 -63
0 -99 26 -159 116 l-55 84 -72 0 c-265 -2 -867 -22 -992 -34 -82 -8 -151 -13
-153 -12 -1 2 74 119 168 260 93 141 170 259 170 262 0 2 -12 4 -27 4 -26 0
-25 3 34 63 68 68 87 105 148 286 22 62 54 137 72 165 18 28 42 71 53 96 22
46 276 721 326 867 16 46 34 83 40 83 6 0 37 -11 69 -24z"/>
<path d="M5094 5445 c-140 -364 -179 -457 -208 -499 -35 -51 -126 -295 -126
-338 -1 -34 -32 -97 -84 -167 -25 -35 -46 -66 -46 -70 0 -3 163 -6 362 -6 334
0 366 -1 397 -18 32 -18 35 -18 75 -1 22 10 43 19 44 20 2 2 -17 32 -42 67
-46 65 -87 146 -100 202 -4 16 -13 86 -21 155 -13 125 -14 128 -115 375 -56
138 -108 261 -115 275 -13 24 -14 24 -21 5z"/>
</g>
</svg>
